<?xml version="1.0" standalone="no"?>
<!DOCTYPE svg PUBLIC "-//W3C//DTD SVG 20010904//EN"
 "http://www.w3.org/TR/2001/REC-SVG-20010904/DTD/svg10.dtd">
<svg version="1.0" xmlns="http://www.w3.org/2000/svg"
 width="511.000000pt" height="488.000000pt" viewBox="0 0 511.000000 488.000000"
 preserveAspectRatio="xMidYMid meet">

<g transform="translate(0.000000,488.000000) scale(0.100000,-0.100000)"
fill="#000000" stroke="none">
<path d="M2234 4765 c-180 -27 -441 -95 -567 -149 -448 -192 -780 -457 -1051
-836 -417 -583 -539 -1319 -332 -1988 102 -327 250 -587 492 -862 193 -221
423 -394 714 -539 335 -166 656 -241 1035 -241 262 0 485 33 718 107 611 192
1109 621 1393 1198 157 321 234 648 234 1000 0 790 -433 1552 -1125 1980 -239
148 -516 259 -760 305 -225 41 -559 53 -751 25z m582 -460 c133 -21 304 -74
433 -135 l104 -50 -94 -46 c-51 -25 -158 -81 -237 -125 l-143 -80 -19 24 c-45
57 -131 70 -270 41 -221 -46 -424 -194 -523 -382 -57 -108 -77 -186 -77 -293
1 -107 12 -156 58 -248 67 -134 199 -243 357 -293 114 -36 190 -59 245 -74
139 -37 292 -90 370 -127 70 -33 100 -55 175 -131 135 -134 210 -275 254 -473
21 -95 24 -136 12 -128 -5 2 -16 -4 -25 -14 -13 -14 -14 -21 -5 -27 8 -4 10
-3 5 5 -4 6 0 14 9 18 10 3 21 0 26 -8 12 -19 11 -236 -1 -244 -5 -3 -7 -11
-4 -19 7 -17 -22 -156 -48 -231 -28 -83 -77 -185 -89 -185 -5 0 -8 -3 -7 -8 4
-14 -14 -52 -22 -47 -5 3 -12 0 -16 -6 -4 -8 -3 -9 4 -5 7 4 12 4 12 1 0 -13
-85 -119 -129 -161 -23 -21 -26 -22 -38 -6 -13 15 -13 15 -3 -5 9 -20 5 -26
-36 -57 -50 -39 -75 -47 -53 -18 11 15 11 15 -1 4 -8 -7 -15 -18 -15 -24 0
-18 -137 -83 -216 -101 -103 -24 -202 -37 -285 -37 -112 0 -387 42 -425 65 -7
5 -20 10 -29 10 -27 2 -150 46 -155 56 -4 5 -12 9 -20 9 -41 0 -305 150 -305
173 0 5 3 6 8 4 7 -5 5 81 -4 121 -8 39 -72 101 -117 113 -45 12 -111 0 -153
-28 -29 -18 -35 -15 -136 73 -249 220 -448 567 -518 907 -26 129 -43 343 -34
447 l7 84 43 -132 c93 -285 226 -506 428 -707 110 -109 126 -123 244 -201 113
-76 237 -137 351 -171 72 -22 111 -27 236 -30 171 -5 201 4 243 67 26 39 25
83 -3 126 -33 50 -58 58 -219 65 -177 7 -257 31 -401 117 -450 268 -724 793
-684 1306 14 177 86 364 206 534 61 86 245 271 307 307 76 45 80 25 18 -100
-96 -193 -140 -362 -149 -566 -7 -159 5 -255 49 -402 111 -371 383 -668 705
-771 43 -14 119 -34 168 -46 329 -76 397 -101 469 -174 23 -23 55 -66 71 -96
28 -52 30 -61 30 -170 0 -115 0 -117 -39 -195 -73 -150 -224 -273 -403 -332
-43 -13 -83 -29 -89 -34 -5 -4 -20 -6 -32 -2 -24 6 -28 -4 -11 -27 9 -13 10
-12 5 3 -3 9 -1 17 4 17 16 0 19 -15 6 -32 -12 -16 -14 -16 -24 7 -9 18 -19
25 -39 24 l-28 -1 25 -7 c29 -8 51 -47 44 -76 -3 -11 2 -37 11 -57 19 -47 19
-52 -1 -44 -9 3 -12 2 -9 -5 4 -6 14 -8 22 -4 9 3 28 -2 42 -12 37 -25 140
-22 210 5 30 12 59 18 64 15 6 -3 7 -2 4 4 -4 6 16 22 44 38 56 30 162 109
209 155 17 17 36 27 42 24 6 -4 8 -3 5 3 -4 6 11 33 34 59 22 27 47 62 55 77
8 15 19 25 24 22 6 -4 7 1 3 11 -5 13 -3 15 8 9 8 -4 11 -5 7 -1 -9 10 11 66
24 66 5 0 7 4 4 9 -8 13 19 73 29 64 4 -5 5 -3 2 3 -3 6 0 35 8 65 19 72 19
239 0 314 -36 138 -120 263 -230 345 -98 72 -216 112 -609 206 -146 35 -261
96 -359 191 -148 144 -238 327 -272 553 -19 123 -19 199 1 335 59 399 339 755
694 880 44 15 191 44 245 47 81 6 233 -3 331 -17z m31 -1020 c1 -69 4 -85 15
-85 11 0 48 -32 43 -39 -1 -3 63 -7 143 -9 162 -4 213 -14 335 -70 67 -30 76
-37 65 -51 -11 -14 -11 -14 3 -3 14 10 23 9 55 -10 61 -35 142 -96 153 -115 6
-10 11 -14 11 -8 0 5 18 -8 40 -30 21 -21 36 -43 33 -48 -3 -6 -1 -7 5 -3 13
8 134 -125 127 -141 -2 -7 0 -12 5 -10 12 3 84 -111 132 -208 45 -92 100 -244
92 -256 -3 -5 -1 -9 4 -9 10 0 36 -129 28 -138 -3 -3 -1 -11 5 -18 16 -20 25
-240 10 -258 -7 -8 -11 -19 -8 -23 17 -28 -57 -277 -75 -251 -7 10 -8 8 -4 -5
3 -10 -3 -39 -15 -64 -15 -34 -24 -43 -37 -38 -13 5 -14 3 -5 -6 13 -13 6 -27
-60 -116 -22 -29 -44 -50 -50 -46 -6 4 -7 1 -2 -6 9 -15 -33 -63 -48 -54 -6 3
-8 2 -4 -3 6 -10 -29 -50 -105 -122 -41 -40 -48 -43 -69 -32 -21 10 -22 9 -7
-3 20 -16 15 -21 -71 -81 l-48 -34 30 56 c17 32 34 59 39 60 4 2 5 8 2 13 -3
6 2 22 12 37 10 15 19 36 19 46 1 11 7 22 13 24 6 2 8 10 5 19 -5 12 -3 14 7
8 8 -5 11 -4 7 1 -4 7 25 137 44 194 1 3 1 13 0 23 -1 9 1 17 6 17 4 0 9 17
10 38 0 20 4 101 8 179 7 132 2 205 -22 327 -4 23 -2 28 9 23 8 -3 15 1 15 8
0 7 -8 10 -19 7 -13 -3 -18 1 -18 18 0 12 -11 55 -25 96 -14 42 -22 81 -19 87
4 7 3 8 -2 4 -11 -10 -56 91 -47 107 3 6 3 8 -2 4 -5 -5 -16 4 -25 20 -46 75
-68 121 -62 128 4 4 2 4 -4 1 -16 -9 -76 77 -64 91 7 9 7 9 -2 2 -13 -11 -58
24 -58 46 0 7 -5 16 -12 20 -7 5 -8 2 -3 -7 4 -8 -12 5 -36 28 -24 23 -74 62
-111 86 -37 24 -64 48 -60 52 4 5 1 5 -6 1 -7 -4 -27 1 -46 12 -50 29 -216 86
-418 142 -101 28 -196 56 -211 62 l-29 11 28 24 c89 76 305 280 323 304 12 16
23 29 24 29 1 0 3 -25 4 -55z"/>
<path d="M2996 1327 c3 -10 9 -15 12 -12 3 3 0 11 -7 18 -10 9 -11 8 -5 -6z"/>
<path d="M2975 1290 c-3 -6 1 -7 9 -4 18 7 21 14 7 14 -6 0 -13 -4 -16 -10z"/>
<path d="M2935 1149 c-4 -6 -5 -12 -2 -15 2 -3 7 2 10 11 7 17 1 20 -8 4z"/>
<path d="M2070 1010 c8 -5 20 -10 25 -10 6 0 3 5 -5 10 -8 5 -19 10 -25 10 -5
0 -3 -5 5 -10z"/>
<path d="M1628 1003 c12 -2 22 -9 22 -14 0 -6 5 -7 10 -4 17 11 0 25 -28 24
-24 -2 -24 -2 -4 -6z"/>
<path d="M2018 1003 c6 -2 18 -2 25 0 6 3 1 5 -13 5 -14 0 -19 -2 -12 -5z"/>
<path d="M1688 993 c7 -3 16 -2 19 1 4 3 -2 6 -13 5 -11 0 -14 -3 -6 -6z"/>
<path d="M1958 993 c7 -3 16 -2 19 1 4 3 -2 6 -13 5 -11 0 -14 -3 -6 -6z"/>
<path d="M1995 980 c-3 -6 1 -7 9 -4 18 7 21 14 7 14 -6 0 -13 -4 -16 -10z"/>
<path d="M1628 961 c8 -4 13 -12 12 -17 -1 -5 4 -10 12 -12 9 -2 8 0 -2 7 -13
10 -13 11 0 11 13 0 13 1 0 10 -8 5 -19 10 -25 10 -5 0 -4 -4 3 -9z"/>
<path d="M3216 944 c-23 -23 -20 -30 4 -9 11 10 20 20 20 22 0 7 -9 2 -24 -13z"/>
<path d="M2700 941 c0 -6 4 -13 10 -16 6 -3 7 1 4 9 -7 18 -14 21 -14 7z"/>
<path d="M2975 749 c-4 -6 -5 -12 -2 -15 2 -3 7 2 10 11 7 17 1 20 -8 4z"/>
<path d="M3465 2970 c-3 -6 1 -7 9 -4 18 7 21 14 7 14 -6 0 -13 -4 -16 -10z"/>
<path d="M4136 1803 c-6 -14 -5 -15 5 -6 7 7 10 15 7 18 -3 3 -9 -2 -12 -12z"/>
<path d="M3735 1329 c-4 -6 -5 -12 -2 -15 2 -3 7 2 10 11 7 17 1 20 -8 4z"/>
</g>
</svg>
